<svg width="24" height="24" viewBox="0 0 24 24" fill="none" xmlns="http://www.w3.org/2000/svg">
<path d="M20.4848 20.4849C15.7989 25.1717 8.20107 25.1717 3.51519 20.4849C-1.17173 15.7989 -1.17173 8.2011 3.51519 3.51517C8.20105 -1.17172 15.7989 -1.17172 20.4848 3.51517C25.1717 8.2011 25.1717 15.7989 20.4848 20.4849ZM19.0708 4.92915C15.1659 1.02423 8.83402 1.02423 4.92915 4.92915C1.02422 8.83407 1.02422 15.1659 4.92915 19.0709C8.83407 22.9758 15.1659 22.9758 19.0709 19.0709C22.9758 15.1659 22.9758 8.83407 19.0709 4.92915H19.0708ZM17.0379 16.8609L16.8609 17.0379C16.7797 17.1192 16.6833 17.1837 16.5772 17.2277C16.4711 17.2717 16.3573 17.2944 16.2424 17.2944C16.1275 17.2944 16.0138 17.2717 15.9076 17.2277C15.8015 17.1837 15.7051 17.1192 15.6239 17.0379L12 13.414L8.46408 16.9499C8.37118 17.0427 8.26089 17.1164 8.13953 17.1666C8.01816 17.2168 7.88809 17.2426 7.75674 17.2426C7.49148 17.2425 7.23711 17.137 7.04961 16.9494C6.95676 16.8565 6.88313 16.7462 6.83291 16.6248C6.78269 16.5035 6.75686 16.3734 6.75691 16.2421C6.757 15.9768 6.86246 15.7224 7.0501 15.5349L10.586 12L6.96212 8.37611C6.88081 8.29493 6.81631 8.19852 6.7723 8.09239C6.72829 7.98627 6.70564 7.8725 6.70564 7.75761C6.70564 7.64272 6.72829 7.52896 6.7723 7.42283C6.81631 7.31671 6.88081 7.2203 6.96212 7.13912L7.13907 6.96212C7.22024 6.88081 7.31665 6.81631 7.42278 6.7723C7.52891 6.72829 7.64268 6.70563 7.75757 6.70563C7.87247 6.70563 7.98623 6.72829 8.09236 6.7723C8.19849 6.81631 8.2949 6.88081 8.37608 6.96212L12 10.586L15.5359 7.05011C15.7245 6.86787 15.9771 6.76701 16.2394 6.76925C16.5016 6.77149 16.7525 6.87666 16.9379 7.0621C17.1233 7.24754 17.2285 7.4984 17.2307 7.76064C17.233 8.02288 17.1321 8.27551 16.9499 8.46409L13.4139 12L17.0379 15.6239C17.1192 15.7051 17.1837 15.8015 17.2277 15.9076C17.2717 16.0138 17.2943 16.1275 17.2943 16.2424C17.2943 16.3573 17.2717 16.4711 17.2277 16.5772C17.1837 16.6833 17.1192 16.7797 17.0379 16.8609Z" fill="black"/>
</svg>
