<svg width="16" height="16" viewBox="0 0 16 16" fill="none" xmlns="http://www.w3.org/2000/svg">
<g clip-path="url(#clip0_223_1178)">
<path d="M8 14.6667C11.682 14.6667 14.6667 11.682 14.6667 8C14.6667 4.318 11.682 1.33333 8 1.33333C4.318 1.33333 1.33333 4.318 1.33333 8C1.33333 11.682 4.318 14.6667 8 14.6667ZM8 16C3.582 16 0 12.418 0 8C0 3.582 3.582 0 8 0C12.418 0 16 3.582 16 8C16 12.418 12.418 16 8 16Z" fill="#35A034"/>
<path d="M8.13998 3.62671C7.16665 3.62671 6.39331 3.90671 5.83331 4.48004C5.25998 5.04004 4.97998 5.80004 4.97998 6.77338H6.39331C6.39331 6.18671 6.51331 5.72004 6.75331 5.40004C7.01998 5.02671 7.45998 4.84004 8.05998 4.84004C8.53998 4.84004 8.91331 4.97338 9.17998 5.24004C9.43331 5.50671 9.56665 5.86671 9.56665 6.33338C9.56665 6.68004 9.44665 7.00004 9.20665 7.30671L8.97998 7.56004C8.15331 8.29338 7.64665 8.84004 7.45998 9.21338C7.28665 9.56004 7.20665 9.98671 7.20665 10.48V10.7067H8.63331V10.48C8.63331 10.1467 8.69998 9.85338 8.84665 9.58671C8.96665 9.34671 9.15331 9.12004 9.39331 8.90671C10.0333 8.36004 10.4066 8.01338 10.5266 7.86671C10.8466 7.44004 11.02 6.89338 11.02 6.24004C11.02 5.44004 10.7533 4.80004 10.2333 4.33338C9.69998 3.85338 9.00665 3.62671 8.13998 3.62671ZM7.91331 11.4267C7.63331 11.4267 7.40665 11.5067 7.23331 11.6934C7.03331 11.8667 6.93998 12.0934 6.93998 12.3734C6.93998 12.64 7.03331 12.8667 7.23331 13.0534C7.40665 13.24 7.63331 13.3334 7.91331 13.3334C8.17998 13.3334 8.41998 13.24 8.61998 13.0667C8.80665 12.88 8.89998 12.6534 8.89998 12.3734C8.89998 12.0934 8.80665 11.8667 8.61998 11.6934C8.43331 11.5067 8.19331 11.4267 7.91331 11.4267Z" fill="#35A034"/>
</g>
<defs>
<clipPath id="clip0_223_1178">
<rect width="16" height="16" fill="white"/>
</clipPath>
</defs>
</svg>
